<?xml version="1.0" standalone="no"?>
<!DOCTYPE svg PUBLIC "-//W3C//DTD SVG 20010904//EN"
 "http://www.w3.org/TR/2001/REC-SVG-20010904/DTD/svg10.dtd">
<svg version="1.0" xmlns="http://www.w3.org/2000/svg"
 width="163.000000pt" height="166.000000pt" viewBox="0 0 163.000000 166.000000"
 preserveAspectRatio="xMidYMid meet">

<g transform="translate(0.000000,166.000000) scale(0.100000,-0.100000)"
fill="#000000" stroke="none">
<path d="M675 1626 c-127 -30 -236 -83 -342 -168 -116 -92 -236 -280 -278
-433 -25 -93 -30 -264 -11 -368 15 -85 14 -90 -4 -125 -26 -48 -25 -89 3 -143
27 -50 85 -89 135 -89 24 0 42 -9 66 -34 167 -166 412 -261 626 -241 283 26
524 184 649 424 55 106 81 206 88 333 8 151 -22 291 -90 420 l-30 58 23 52
c85 199 -146 376 -307 235 -67 -59 -88 -142 -58 -227 19 -53 22 -48 -117 -206
-172 -197 -328 -320 -538 -425 -99 -49 -263 -109 -298 -109 -48 0 -73 254 -38
389 81 316 292 512 605 562 76 12 227 -3 308 -30 51 -17 73 -13 73 13 0 5 8
18 17 28 22 24 15 29 -92 64 -99 33 -291 43 -390 20z m688 -133 c19 -11 5 -53
-28 -82 -41 -36 -90 -42 -100 -12 -15 47 46 116 94 105 14 -4 29 -9 34 -11z
m-3 -294 c25 0 39 -3 33 -6 -7 -2 -13 -9 -13 -14 0 -4 6 -6 14 -3 16 6 71
-104 87 -174 26 -118 28 -236 5 -347 -13 -65 -83 -212 -119 -250 -132 -144
-204 -191 -372 -247 -118 -39 -300 -29 -418 21 -120 52 -138 63 -132 82 5 14
0 22 -17 28 -13 4 -28 7 -34 4 -6 -2 -17 3 -24 12 -10 12 -10 15 1 16 8 0 22
2 31 4 10 2 18 -1 18 -6 0 -5 13 -15 29 -24 16 -8 36 -22 45 -30 15 -15 16
-14 17 7 1 23 1 23 9 -2 6 -19 8 -20 9 -6 1 13 6 16 19 11 77 -33 112 -41 214
-49 32 -2 63 -8 69 -12 7 -4 9 -3 6 2 -3 6 20 11 56 12 33 2 66 7 71 11 6 5
16 10 21 11 68 15 203 85 228 119 6 9 25 26 40 38 37 29 110 141 110 170 0 13
4 26 8 29 5 3 6 10 3 16 -4 6 -2 8 3 5 14 -9 31 39 28 80 -1 18 2 30 6 27 8
-5 9 -3 9 101 0 106 -11 155 -34 155 -7 0 -6 4 3 9 11 7 11 15 0 47 -7 22 -21
51 -31 66 -10 14 -18 30 -18 36 0 5 -6 15 -14 21 -10 9 -30 -11 -95 -97 -244
-320 -552 -555 -836 -637 -118 -34 -175 -39 -221 -20 -47 20 -43 46 9 51 55 5
237 68 354 124 223 106 443 288 627 518 86 109 87 110 119 101 18 -5 52 -9 77
-10z m45 -389 c3 -6 -1 -7 -9 -4 -18 7 -21 14 -7 14 6 0 13 -4 16 -10z m-175
-92 c0 -5 6 -6 13 -2 9 6 9 4 1 -7 -6 -8 -11 -45 -13 -84 -1 -52 -6 -73 -19
-83 -11 -8 -18 -9 -20 -2 -2 5 -10 10 -18 10 -11 0 -13 9 -10 38 3 20 5 60 5
89 1 41 5 52 19 55 22 5 42 -1 42 -14z m-250 -244 c0 -23 -30 -41 -49 -30 -14
9 -19 65 -5 59 7 -2 15 1 19 7 10 17 35 -8 35 -36z m-295 -103 c3 -11 3 -31
-1 -45 -5 -22 -12 -26 -40 -26 -48 0 -63 37 -31 78 15 20 65 15 72 -7z m-245
-101 c0 -5 -4 -10 -10 -10 -5 0 -10 5 -10 10 0 6 5 10 10 10 6 0 10 -4 10 -10z"/>
<path d="M460 260 c0 -5 5 -10 11 -10 5 0 7 5 4 10 -3 6 -8 10 -11 10 -2 0 -4
-4 -4 -10z"/>
<path d="M570 239 c0 -5 5 -7 10 -4 6 3 10 8 10 11 0 2 -4 4 -10 4 -5 0 -10
-5 -10 -11z"/>
<path d="M767 1419 c-46 -27 -40 -93 9 -105 55 -14 89 68 42 100 -26 19 -27
19 -51 5z"/>
</g>
</svg>
