<?xml version="1.0" standalone="no"?>
<!DOCTYPE svg PUBLIC "-//W3C//DTD SVG 20010904//EN"
 "http://www.w3.org/TR/2001/REC-SVG-20010904/DTD/svg10.dtd">
<svg version="1.0" xmlns="http://www.w3.org/2000/svg"
 width="198.000000pt" height="216.000000pt" viewBox="0 0 198.000000 216.000000"
 preserveAspectRatio="xMidYMid meet">

<g transform="translate(0.000000,216.000000) scale(0.100000,-0.100000)"
fill="#000000" stroke="none">
<path d="M565 2126 c-58 -26 -70 -49 -73 -151 -4 -90 -3 -94 25 -124 18 -21
45 -36 78 -45 l50 -12 3 -226 2 -226 -104 -189 c-57 -103 -196 -353 -308 -555
-113 -202 -211 -387 -218 -412 -11 -42 -11 -49 11 -93 45 -89 -25 -83 962 -83
942 0 911 -2 955 55 36 46 30 96 -25 184 -78 128 -90 141 -127 141 -66 0 -64
-19 10 -140 43 -71 64 -114 58 -120 -6 -6 -328 -10 -863 -11 -880 0 -881 0
-881 39 0 21 124 255 267 504 43 74 44 78 28 102 -24 36 -11 48 43 41 26 -4
56 -9 66 -12 14 -4 18 -1 13 11 -4 9 -2 16 3 16 6 0 10 -5 10 -12 0 -6 3 -8 7
-4 5 4 -1 14 -11 22 -19 13 -19 14 -1 14 17 0 17 2 -4 24 l-23 25 22 46 c12
25 62 118 111 207 50 90 92 172 95 185 3 12 7 122 7 245 l2 223 200 0 200 0 2
-226 c1 -212 3 -229 23 -270 21 -42 161 -283 296 -511 35 -59 64 -110 64 -113
0 -2 -23 -7 -51 -11 -57 -8 -79 -24 -79 -59 0 -33 27 -45 80 -35 25 4 80 11
123 15 93 8 95 14 36 106 -50 77 -237 399 -325 560 l-64 116 0 215 0 215 41 6
c79 10 115 73 107 186 -6 78 -19 102 -69 130 -35 20 -51 21 -390 21 -271 -1
-361 -4 -384 -14z m629 -103 l107 -6 -3 -51 -3 -51 -350 0 -350 0 -3 52 -3 52
33 4 c57 7 460 7 572 0z"/>
<path d="M227 1484 c-14 -15 -6 -43 14 -49 25 -8 42 6 37 31 -3 19 -38 31 -51
18z"/>
<path d="M242 1303 c2 -20 8 -28 23 -28 31 0 28 49 -3 53 -20 3 -23 0 -20 -25z"/>
<path d="M945 1035 c-29 -28 -31 -51 -10 -82 44 -63 145 -14 115 57 -10 25
-46 50 -71 50 -5 0 -21 -11 -34 -25z"/>
<path d="M729 709 c-23 -44 25 -91 59 -57 18 18 14 56 -7 68 -29 15 -39 13
-52 -11z"/>
<path d="M1090 705 c-10 -12 -10 -21 -2 -40 13 -29 38 -32 63 -9 14 13 16 20
7 40 -13 28 -49 32 -68 9z"/>
<path d="M871 561 c-42 -38 -52 -52 -47 -69 11 -35 37 -35 72 -1 l33 32 36
-32 c28 -25 40 -29 54 -21 36 19 31 37 -24 89 -30 28 -57 51 -62 51 -4 0 -32
-22 -62 -49z"/>
<path d="M1700 521 c-14 -4 -31 -19 -38 -34 -11 -23 -11 -30 5 -51 52 -70 144
-3 103 75 -11 20 -27 22 -70 10z"/>
<path d="M1190 320 c-8 -14 -8 -26 0 -40 9 -17 21 -20 88 -20 90 0 105 7 100
46 l-3 29 -87 3 c-79 2 -88 1 -98 -18z"/>
<path d="M432 307 c-6 -7 -9 -23 -5 -35 5 -22 8 -22 194 -22 166 0 190 2 196
16 3 9 2 24 -4 33 -9 14 -37 16 -190 19 -140 2 -183 -1 -191 -11z"/>
</g>
</svg>
